<svg width="48" height="43" viewBox="0 0 48 43" fill="none" xmlns="http://www.w3.org/2000/svg">
<path d="M27.3417 9.33334L46.975 33.7833C47.6417 34.6167 48 35.6417 48 36.7V38.6667C48 40.875 46.2083 42.6667 44 42.6667H4C1.79083 42.6667 0 40.875 0 38.6667V36.7C0 35.6417 0.360667 34.6167 1.0225 33.7833L20.5833 9.33334L16.5833 4.3325C15.5917 3.1825 15.85 1.50417 17 0.584419C18.15 -0.335581 19.825 -0.149081 20.675 1.00084L24 5.065L27.25 1.00084C28.175 -0.149081 29.85 -0.335581 30.925 0.584419C32.15 1.50417 32.3333 3.1825 31.3417 4.3325L27.3417 9.33334ZM33.9583 37.3333L24 24.3083L14.0417 37.3333H33.9583Z" fill="white" fill-opacity="0.8"/>
</svg>
