<svg width="48" height="40" viewBox="0 0 48 40" fill="none" xmlns="http://www.w3.org/2000/svg">
<path d="M20.6025 23.3846H12.9975C5.82075 23.3846 0 29.3538 0 36.7154C0 38.1923 1.164 39.3846 2.5995 39.3846H30.9975C32.4375 39.3846 33.6 38.1923 33.6 36.7154C33.6 29.3538 27.78 23.3846 20.6025 23.3846ZM16.8 19.6923C22.1025 19.6923 26.4 15.2838 26.4 9.84615C26.4 4.40846 22.1025 0 16.8 0C11.4975 0 7.2 4.40846 7.2 9.84615C7.2 15.2838 11.4975 19.6923 16.8 19.6923ZM47.4225 10.3385C46.6948 9.64615 45.5542 9.68823 44.8785 10.4358L38.3497 17.6474L35.4705 14.6943C34.7674 13.9732 33.6285 13.9732 32.925 14.6943C32.2215 15.4155 32.2219 16.5835 32.925 17.3051L37.125 21.6128C37.4625 21.9615 37.92 22.1538 38.4 22.1538H38.4328C38.9226 22.1442 39.3868 21.9315 39.7198 21.5637L47.5198 12.9483C48.195 12.2 48.15 11.0308 47.4225 10.3385Z" fill="white" fill-opacity="0.8"/>
</svg>
