<svg width="17" height="19" viewBox="0 0 17 19" fill="none" xmlns="http://www.w3.org/2000/svg">
<path fill-rule="evenodd" clip-rule="evenodd" d="M1.88889 6.66678C1.38792 6.66678 0.907478 6.46777 0.553243 6.11353C0.199007 5.7593 0 5.27885 0 4.77789V1.94455C0 1.44359 0.199007 0.963142 0.553243 0.608907C0.907478 0.254671 1.38792 0.0556641 1.88889 0.0556641H5.66667C6.16763 0.0556641 6.64808 0.254671 7.00231 0.608907C7.35655 0.963142 7.55556 1.44359 7.55556 1.94455V4.77789C7.55556 5.27885 7.35655 5.7593 7.00231 6.11353C6.64808 6.46777 6.16763 6.66678 5.66667 6.66678H1.88889ZM1.88889 18.9446C1.38792 18.9446 0.907478 18.7455 0.553243 18.3913C0.199007 18.0371 0 17.5566 0 17.0557V9.50011C0 8.99914 0.199007 8.5187 0.553243 8.16446C0.907478 7.81023 1.38792 7.61122 1.88889 7.61122H5.66667C6.16763 7.61122 6.64808 7.81023 7.00231 8.16446C7.35655 8.5187 7.55556 8.99914 7.55556 9.50011V17.0557C7.55556 17.5566 7.35655 18.0371 7.00231 18.3913C6.64808 18.7455 6.16763 18.9446 5.66667 18.9446H1.88889ZM11.3333 18.9446C10.8324 18.9446 10.3519 18.7455 9.99769 18.3913C9.64345 18.0371 9.44444 17.5566 9.44444 17.0557V15.1668C9.44444 14.6658 9.64345 14.1854 9.99769 13.8311C10.3519 13.4769 10.8324 13.2779 11.3333 13.2779H15.1111C15.6121 13.2779 16.0925 13.4769 16.4468 13.8311C16.801 14.1854 17 14.6658 17 15.1668V17.0557C17 17.5566 16.801 18.0371 16.4468 18.3913C16.0925 18.7455 15.6121 18.9446 15.1111 18.9446H11.3333ZM11.3333 11.389C10.8324 11.389 10.3519 11.19 9.99769 10.8358C9.64345 10.4815 9.44444 10.0011 9.44444 9.50011V1.94455C9.44444 1.44359 9.64345 0.963142 9.99769 0.608907C10.3519 0.254671 10.8324 0.0556641 11.3333 0.0556641H15.1111C15.6121 0.0556641 16.0925 0.254671 16.4468 0.608907C16.801 0.963142 17 1.44359 17 1.94455V9.50011C17 10.0011 16.801 10.4815 16.4468 10.8358C16.0925 11.19 15.6121 11.389 15.1111 11.389H11.3333Z" fill="#FFDE06"/>
</svg>
