<svg width="21" height="21" viewBox="0 0 21 21" fill="none" xmlns="http://www.w3.org/2000/svg">
<path d="M1.3825 0C0.618387 0 0 0.743798 0 1.66288V4.60976V7.12863V16.2219C0 17.1409 0.618387 17.8777 1.3825 17.8777H8.67417V6.28667C8.67417 5.48403 9.18348 4.79571 9.84667 4.715C9.94744 4.70274 9.99017 4.715 9.975 4.715H15.6683H16.1525C16.3111 4.71538 16.4718 4.79032 16.5842 4.92549L19.6642 8.63014C19.7767 8.76662 19.8383 8.95488 19.8392 9.14935V9.73171V17.8567C20.4977 17.7303 21 17.0501 21 16.2219V4.60976C21 3.69067 20.3816 2.95954 19.6175 2.95389H8.5225V1.66288C8.5225 0.743798 7.90995 0 7.14583 0H1.3825ZM9.905 5.43769C9.54914 5.48099 9.275 5.8464 9.275 6.28667V20.151C9.275 20.6206 9.58457 21 9.975 21H18.5383C18.9288 21 19.2383 20.6206 19.2383 20.151V9.73171H16.66C16.1319 9.73171 15.6683 9.27349 15.6683 8.6582V5.43769H9.975C9.9506 5.43769 9.92872 5.4348 9.905 5.43769ZM16.1583 5.43769V8.6582C16.1583 8.91104 16.3619 9.14233 16.66 9.14233H19.2383L16.1583 5.43769Z" fill="white"/>
</svg>
